<?xml version="1.0" standalone="no"?>
<!DOCTYPE svg PUBLIC "-//W3C//DTD SVG 20010904//EN"
 "http://www.w3.org/TR/2001/REC-SVG-20010904/DTD/svg10.dtd">
<svg version="1.0" xmlns="http://www.w3.org/2000/svg"
 width="1024.000000pt" height="1024.000000pt" viewBox="0 0 1024.000000 1024.000000"
 preserveAspectRatio="xMidYMid meet">
<metadata>
Created by potrace 1.11, written by Peter Selinger 2001-2013
</metadata>
<g transform="translate(0.000000,1024.000000) scale(0.100000,-0.100000)"
fill="#000000" stroke="none">
<path d="M5698 9605 c-3 -3 -113 -8 -244 -11 -211 -4 -329 -9 -329 -14 0 0
-25 -3 -55 -5 -30 -2 -71 -6 -90 -9 -19 -3 -55 -8 -80 -11 -43 -5 -172 -28
-215 -38 -38 -9 -105 -19 -107 -16 -2 1 -12 -2 -23 -8 -11 -6 -36 -14 -55 -17
-19 -3 -60 -13 -90 -21 -30 -9 -80 -23 -110 -31 -92 -25 -305 -99 -308 -106
-2 -5 -9 -8 -17 -8 -18 0 -175 -64 -275 -112 -47 -23 -87 -42 -90 -43 -18 -6
-46 -19 -50 -24 -3 -3 -34 -21 -70 -39 -36 -17 -92 -48 -125 -67 -33 -20 -75
-43 -92 -52 -18 -9 -33 -20 -33 -25 0 -4 -5 -8 -11 -8 -28 0 -352 -232 -499
-357 -14 -11 -47 -40 -75 -63 -130 -111 -337 -320 -455 -460 -25 -30 -52 -62
-61 -71 -9 -9 -21 -23 -25 -32 -10 -17 -61 -80 -86 -108 -10 -10 -18 -23 -18
-27 0 -5 -8 -17 -18 -28 -52 -57 -259 -380 -305 -474 -6 -14 -14 -27 -18 -30
-3 -3 -40 -75 -82 -160 -65 -134 -90 -190 -159 -358 -6 -15 -13 -36 -15 -46
-2 -11 -7 -24 -12 -30 -15 -19 -142 -433 -155 -506 -2 -14 -7 -32 -10 -40 -3
-8 -7 -31 -10 -51 -3 -20 -8 -42 -10 -50 -6 -14 -12 -48 -22 -109 -3 -19 -7
-45 -10 -57 -17 -92 -23 -132 -29 -198 -3 -33 -8 -70 -10 -82 -27 -159 -27
-752 1 -973 9 -70 14 -113 18 -140 3 -14 7 -43 10 -65 7 -53 17 -115 23 -140
2 -11 6 -31 8 -45 2 -14 13 -63 24 -110 11 -47 22 -98 25 -113 2 -15 7 -30 10
-35 3 -5 8 -22 11 -38 3 -16 7 -33 9 -39 1 -5 8 -30 15 -55 7 -25 13 -45 12
-45 0 0 18 -52 40 -115 22 -63 41 -122 44 -131 4 -20 56 -149 97 -244 30 -70
169 -352 192 -390 6 -11 22 -38 34 -60 12 -22 33 -58 47 -80 14 -22 28 -48 31
-57 4 -10 10 -18 15 -18 5 0 9 -4 9 -9 0 -13 219 -333 241 -351 3 -3 25 -30
48 -60 116 -149 293 -337 458 -490 105 -97 134 -123 183 -160 24 -19 56 -45
70 -58 14 -13 37 -31 53 -40 15 -9 27 -20 27 -24 0 -4 6 -8 14 -8 8 0 16 -3
18 -7 5 -13 116 -93 128 -93 5 0 10 -3 10 -8 0 -4 33 -27 73 -52 39 -24 74
-48 75 -52 2 -4 8 -8 14 -8 5 0 22 -9 37 -19 14 -11 47 -30 71 -44 200 -109
264 -141 386 -196 76 -34 148 -66 159 -71 11 -5 58 -23 105 -40 105 -38 103
-37 112 -39 7 -1 41 -13 103 -37 11 -4 24 -6 28 -5 4 0 17 -4 28 -10 11 -6 30
-13 42 -15 38 -9 52 -12 52 -14 0 -1 7 -3 15 -5 8 -1 35 -8 60 -15 25 -7 52
-13 61 -15 8 -2 44 -10 80 -19 58 -14 165 -35 214 -42 11 -1 20 -3 20 -4 0 -1
11 -3 25 -4 30 -3 127 -17 155 -21 59 -11 347 -33 470 -36 25 -1 386 12 430
15 85 6 189 17 215 22 14 2 43 7 65 9 22 3 51 7 65 10 14 3 45 8 70 11 25 3
48 8 51 10 3 2 21 6 40 9 19 3 55 10 80 16 26 6 55 12 65 14 11 2 19 4 19 5 0
1 9 3 20 5 22 3 211 52 235 61 8 3 17 5 20 5 3 1 10 4 15 8 6 5 24 11 40 15
32 8 211 70 260 91 17 7 56 24 88 39 32 14 60 26 64 26 11 0 318 155 321 163
2 4 8 7 12 7 5 0 51 25 102 56 51 31 110 66 131 77 20 11 37 24 37 29 0 4 4 8
10 8 9 0 157 101 215 147 17 13 35 27 40 31 19 14 160 126 171 137 6 5 38 32
70 60 152 129 564 561 550 576 -3 2 -7 33 -10 69 -4 57 -13 121 -32 235 -3 17
-18 84 -34 150 -75 304 -206 556 -383 736 -94 96 -105 106 -196 164 -102 65
-265 134 -356 151 -11 2 -40 8 -65 14 -25 5 -69 12 -98 14 -29 3 -56 8 -61 11
-5 3 -12 1 -16 -5 -4 -6 -12 -7 -18 -3 -19 12 -347 10 -348 -2 -1 -5 -2 -162
-3 -348 l-1 -338 -50 -44 c-27 -25 -59 -53 -70 -63 -11 -10 -56 -45 -100 -78
-44 -32 -81 -62 -83 -66 -2 -5 -8 -8 -12 -8 -5 0 -47 -25 -94 -55 -93 -61
-314 -176 -373 -195 -21 -7 -43 -16 -48 -21 -15 -11 -284 -99 -320 -104 -16
-2 -56 -11 -88 -20 -32 -9 -62 -13 -67 -10 -6 3 -10 2 -10 -2 0 -5 -8 -9 -17
-10 -17 0 -61 -6 -133 -18 -145 -23 -499 -23 -657 -1 -24 3 -60 8 -81 11 -42
6 -42 6 -157 30 -96 21 -96 21 -115 27 -8 3 -62 20 -120 39 -151 47 -244 85
-385 156 -89 45 -231 128 -272 159 -17 13 -34 24 -37 24 -3 0 -14 7 -24 15 -9
9 -52 43 -95 76 -43 33 -87 68 -99 77 -48 39 -238 232 -289 292 -30 36 -56 67
-59 70 -7 7 -98 131 -142 195 -51 74 -148 244 -148 261 0 8 -4 14 -10 14 -5 0
-10 4 -10 9 0 5 -17 47 -38 93 -21 45 -44 99 -51 118 -7 19 -17 44 -22 55 -23
53 -95 299 -105 360 -2 11 -8 40 -13 65 -5 25 -12 63 -15 85 -4 23 -8 50 -10
62 -28 142 -28 604 -1 745 3 13 7 43 10 68 3 25 7 52 10 60 2 8 6 26 9 40 16
90 82 331 106 385 4 11 23 56 40 100 60 148 185 390 226 436 8 8 14 19 14 22
0 8 128 188 140 197 3 3 13 14 21 26 29 43 244 274 255 274 2 0 16 13 31 28
55 55 281 232 297 232 4 0 19 11 34 25 15 14 30 25 33 25 4 0 40 20 81 45 42
25 80 45 87 45 6 0 11 5 11 10 0 6 9 10 20 10 11 0 20 5 20 10 0 6 5 10 11 10
6 0 49 18 95 40 47 22 90 40 97 40 7 0 17 4 22 9 8 7 145 56 190 68 6 1 26 7
45 12 121 33 151 40 200 50 30 6 69 13 85 15 59 9 121 18 165 23 65 8 475 7
540 -1 109 -13 125 -15 155 -21 17 -4 41 -8 55 -9 14 -2 32 -6 40 -9 8 -3 44
-11 80 -18 80 -16 72 -15 90 -22 8 -3 49 -15 90 -27 41 -11 84 -25 95 -29 11
-5 52 -21 90 -36 89 -35 316 -145 333 -162 7 -7 20 -13 28 -13 8 0 14 -4 14
-10 0 -5 5 -10 10 -10 6 0 52 -28 102 -62 50 -35 98 -67 107 -73 9 -5 18 -12
21 -15 3 -3 39 -33 80 -67 41 -33 106 -90 144 -125 l69 -65 46 48 c42 44 557
567 1014 1031 97 99 177 184 177 188 0 6 -125 127 -220 212 -96 86 -266 220
-377 297 -43 30 -94 66 -113 80 -19 14 -37 26 -40 26 -3 0 -25 14 -50 30 -80
51 -190 115 -199 115 -5 0 -11 3 -13 8 -11 25 -536 263 -653 296 -5 2 -19 6
-30 10 -77 29 -96 36 -103 36 -4 0 -36 9 -72 20 -76 23 -331 86 -375 94 -16 3
-43 8 -60 11 -56 11 -150 27 -175 30 -14 2 -45 6 -70 9 -72 10 -210 22 -340
30 -20 1 -41 5 -46 9 -6 3 -13 4 -16 2z"/>
<path d="M5240 6090 c-5 -3 -8 -403 -7 -890 l2 -885 1260 -1 c693 -1 1278 -4
1300 -9 22 -4 47 -7 55 -7 15 0 186 -27 205 -32 6 -2 15 -5 20 -6 6 -1 30 -9
55 -17 25 -8 55 -16 68 -19 36 -7 160 -59 242 -100 252 -127 455 -308 625
-559 26 -38 49 -72 52 -75 6 -6 -3 841 -10 890 -4 37 -15 114 -22 165 -2 17
-13 71 -25 120 -11 50 -23 100 -25 113 -33 144 -183 485 -242 550 -7 7 -13 18
-13 23 0 5 -7 17 -16 27 -8 9 -34 42 -57 72 -87 115 -221 248 -311 309 -12 8
-23 18 -26 21 -3 3 -23 17 -45 30 -22 13 -42 26 -45 29 -24 27 -343 173 -375
172 -2 0 -23 6 -46 14 -23 8 -45 13 -49 10 -5 -3 -12 0 -15 6 -4 5 -13 8 -20
5 -7 -2 -16 -2 -20 2 -4 4 -10 7 -13 8 -4 0 -27 4 -52 8 -47 9 -62 11 -150 22
-65 7 -2288 11 -2300 4z"/>
</g>
</svg>
